<?xml version="1.0" encoding="UTF-8"?>
<svg viewBox="0 0 1200 400" xmlns="http://www.w3.org/2000/svg" xmlns:xlink="http://www.w3.org/1999/xlink">
 <defs>
  <clipPath id="bg">
   <path d="m-7281.2-4697.7h10685v4670.6h-10685z"/>
  </clipPath>
  <filter id="v" x="-.38487" y="-.51272" width="1.7697" height="2.0254">
   <feGaussianBlur stdDeviation="33.7523"/>
  </filter>
  <filter id="t" x="-.55746" y="-.43203" width="2.1149" height="1.8641">
   <feGaussianBlur stdDeviation="19.8292"/>
  </filter>
  <filter id="w" x="-.37867" y="-.56312" width="1.7573" height="2.1262">
   <feGaussianBlur stdDeviation="21.5794"/>
  </filter>
  <filter id="u" x="-.36892" y="-.49988" width="1.7378" height="1.9998">
   <feGaussianBlur stdDeviation="11.307"/>
  </filter>
  <filter id="be" x="-.07054" y="-.18339" width="1.1411" height="1.3668">
   <feGaussianBlur stdDeviation="7.6044"/>
  </filter>
  <filter id="bf" x="-.16241" y="-.562" width="1.3248" height="2.124">
   <feGaussianBlur stdDeviation="16.1208"/>
  </filter>
  <linearGradient id="f">
   <stop stop-color="#0f0" offset="0"/>
   <stop stop-color="#008000" offset=".651"/>
   <stop stop-color="#050" offset="1"/>
  </linearGradient>
  <linearGradient id="a">
   <stop stop-color="#ff4016" offset="0"/>
   <stop stop-color="#ffdb00" offset="1"/>
  </linearGradient>
  <linearGradient id="e">
   <stop stop-color="#d45500" offset="0"/>
   <stop stop-color="#d45500" stop-opacity="0" offset="1"/>
  </linearGradient>
  <linearGradient id="bc" x2="0" y1="1516.3" y2="1013.4" gradientUnits="userSpaceOnUse">
   <stop stop-color="#b66400" offset="0"/>
   <stop stop-color="#ff6400" stop-opacity="0" offset="1"/>
  </linearGradient>
  <linearGradient id="j">
   <stop stop-color="#ff0" offset="0"/>
   <stop stop-color="#ff2e00" offset="1"/>
  </linearGradient>
  <linearGradient id="o" x1="-10668" x2="-10573" y1="1974.9" y2="2089" gradientUnits="userSpaceOnUse">
   <stop stop-color="#ff2e00" offset="0"/>
   <stop stop-color="#ffd800" offset="1"/>
  </linearGradient>
  <linearGradient id="au" x2="0" y1="1625.3" y2="1085.3" gradientUnits="userSpaceOnUse">
   <stop stop-color="#f00" offset="0"/>
   <stop stop-color="#f00" stop-opacity="0" offset="1"/>
  </linearGradient>
  <linearGradient id="n" x1="-9955.2" x2="-9834.1" y1="1016.6" y2="1225.9" gradientTransform="matrix(.76471 0 0 .88172 -2325.5 133.33)" gradientUnits="userSpaceOnUse">
   <stop stop-color="#ff2e00" offset="0"/>
   <stop stop-color="#ffad00" offset="1"/>
  </linearGradient>
  <linearGradient id="m" x1="-11530" x2="-11318" y1="-547.64" y2="-462.27" gradientTransform="matrix(.73696 .01014 .01014 .78778 -2994.6 27.645)" gradientUnits="userSpaceOnUse">
   <stop stop-color="#ff3f00" offset="0"/>
   <stop stop-color="#ff9d00" offset="1"/>
  </linearGradient>
  <linearGradient id="l" x1="-10044" x2="-9931.2" y1="1195.4" y2="1244.1" gradientUnits="userSpaceOnUse">
   <stop stop-color="#ff3400" offset="0"/>
   <stop stop-color="#ff9600" offset="1"/>
  </linearGradient>
  <linearGradient id="k" x2="0" y1="-635.45" y2="-715.35" gradientUnits="userSpaceOnUse">
   <stop stop-color="#8e5500" stop-opacity=".7411" offset="0"/>
   <stop stop-color="#8e5500" stop-opacity="0" offset="1"/>
  </linearGradient>
  <linearGradient id="ad" x2="0" y1="1452.8" y2="1302.2" gradientUnits="userSpaceOnUse">
   <stop stop-color="#cb6000" offset="0"/>
   <stop stop-color="#8e0000" stop-opacity="0" offset="1"/>
  </linearGradient>
  <linearGradient id="bd" x1="-10671" x2="-10339" gradientUnits="userSpaceOnUse" xlink:href="#f"/>
  <linearGradient id="i" x1="-11718" x2="-11902" gradientUnits="userSpaceOnUse" xlink:href="#a"/>
  <linearGradient id="d" x2="0" y1="814.11" y2="362.29" gradientUnits="userSpaceOnUse" xlink:href="#e"/>
  <linearGradient id="h" x1="-11651" x2="-11818" gradientUnits="userSpaceOnUse" xlink:href="#a"/>
  <linearGradient id="c" x2="0" y1="-122.07" y2="-448.82" gradientUnits="userSpaceOnUse" xlink:href="#e"/>
  <linearGradient id="g" x1="-11584" x2="-11762" gradientUnits="userSpaceOnUse" xlink:href="#a"/>
  <linearGradient id="b" x2="0" y1="-132.97" y2="-470.5" gradientUnits="userSpaceOnUse" xlink:href="#e"/>
  <linearGradient id="s" x1="-11877" x2="-11628" gradientUnits="userSpaceOnUse" xlink:href="#a"/>
  <linearGradient id="r" x1="-11818" x2="-11554" gradientUnits="userSpaceOnUse" xlink:href="#a"/>
  <linearGradient id="q" x1="-11733" x2="-11501" gradientUnits="userSpaceOnUse" xlink:href="#a"/>
  <linearGradient id="p" x1="-10349" x2="-10564" gradientUnits="userSpaceOnUse" xlink:href="#a"/>
  <linearGradient id="bb" x1="-9982.8" x2="-9671" gradientUnits="userSpaceOnUse" xlink:href="#f"/>
  <linearGradient id="ba" x1="-11968" x2="-11665" gradientUnits="userSpaceOnUse" xlink:href="#a"/>
  <linearGradient id="az" x1="-11873" x2="-11604" gradientUnits="userSpaceOnUse" xlink:href="#a"/>
  <linearGradient id="ay" x1="-11772" x2="-11540" gradientUnits="userSpaceOnUse" xlink:href="#a"/>
  <linearGradient id="ax" x1="-11718" x2="-11956" gradientUnits="userSpaceOnUse" xlink:href="#a"/>
  <linearGradient id="aw" x1="-11651" x2="-11860" gradientUnits="userSpaceOnUse" xlink:href="#a"/>
  <linearGradient id="av" x1="-9688.7" x2="-9898.4" gradientUnits="userSpaceOnUse" xlink:href="#a"/>
  <linearGradient id="at" x1="-11744" x2="-11465" y1="109.93" y2="105.79" gradientTransform="matrix(1.3426 0 0 1.0951 4274.7 -968.07)" gradientUnits="userSpaceOnUse" xlink:href="#f"/>
  <linearGradient id="as" x1="-11902" x2="-11584" gradientUnits="userSpaceOnUse" xlink:href="#a"/>
  <linearGradient id="ar" x1="-11807" x2="-11520" gradientUnits="userSpaceOnUse" xlink:href="#a"/>
  <linearGradient id="aq" x1="-11713" x2="-11524" gradientUnits="userSpaceOnUse" xlink:href="#a"/>
  <linearGradient id="ap" x1="-11151" x2="-11384" gradientUnits="userSpaceOnUse" xlink:href="#a"/>
  <linearGradient id="ao" x2="0" y1="-22.91" y2="-468.4" gradientUnits="userSpaceOnUse" xlink:href="#e"/>
  <linearGradient id="an" x1="-11744" x2="-11465" y1="109.93" y2="105.79" gradientTransform="matrix(1.3426 0 0 1.1155 2833 688.15)" gradientUnits="userSpaceOnUse" xlink:href="#f"/>
  <linearGradient id="am" x1="-11744" x2="-11465" y1="109.93" y2="105.79" gradientTransform="matrix(1.2374 0 0 .85077 2291.4 836.83)" gradientUnits="userSpaceOnUse" xlink:href="#f"/>
  <linearGradient id="al" x1="-11282" x2="-11579" gradientUnits="userSpaceOnUse" xlink:href="#a"/>
  <linearGradient id="ak" x2="0" y1="-133.95" y2="-521.12" gradientUnits="userSpaceOnUse" xlink:href="#e"/>
  <linearGradient id="aj" x1="-11375" x2="-11571" gradientUnits="userSpaceOnUse" xlink:href="#a"/>
  <linearGradient id="ai" x2="0" y1="-124.5" y2="-478.48" gradientUnits="userSpaceOnUse" xlink:href="#e"/>
  <linearGradient id="ah" x1="-11465" x2="-11588" gradientUnits="userSpaceOnUse" xlink:href="#a"/>
  <linearGradient id="ag" x2="0" y1="-133.18" y2="-505.79" gradientUnits="userSpaceOnUse" xlink:href="#e"/>
  <linearGradient id="af" x1="-11980" x2="-12144" gradientUnits="userSpaceOnUse" xlink:href="#a"/>
  <linearGradient id="ae" x2="0" y1="1569.9" y2="1227.9" gradientUnits="userSpaceOnUse" xlink:href="#e"/>
  <radialGradient id="ab" cx="-9788.1" cy="2331.6" r="198.28" gradientTransform="matrix(1.0766 -.0589 .04762 1.2455 636.79 -1123.8)" gradientUnits="userSpaceOnUse">
   <stop stop-color="#ff0" offset="0"/>
   <stop stop-color="#ff3000" offset="1"/>
  </radialGradient>
  <radialGradient id="z" cx="-9850.6" cy="1413.9" r="132.18" gradientTransform="matrix(1.2432 6.4874e-6 -3.4631e-6 .6722 2395.5 469.09)" gradientUnits="userSpaceOnUse">
   <stop stop-color="#ff0" offset="0"/>
   <stop stop-color="#ff3400" offset="1"/>
  </radialGradient>
  <radialGradient id="y" cx="-11526" cy="150.25" r="155.53" gradientTransform="matrix(1.8589 -3.2521e-8 5.2017e-8 2.4507 9378.6 887)" gradientUnits="userSpaceOnUse">
   <stop stop-color="#ffed00" offset="0"/>
   <stop stop-color="#f00" offset="1"/>
  </radialGradient>
  <radialGradient id="x" cx="-11582" cy="-352.95" r="155.53" gradientTransform="matrix(.81571 0 0 .44257 -2132.7 -222.81)" gradientUnits="userSpaceOnUse">
   <stop stop-color="#ff0" offset="0"/>
   <stop stop-color="#ff0" stop-opacity="0" offset="1"/>
  </radialGradient>
  <radialGradient id="ac" cx="-10460" cy="1254.9" r="155.02" gradientUnits="userSpaceOnUse" xlink:href="#j"/>
  <radialGradient id="aa" cx="-11250" cy="-275.81" r="194.15" gradientTransform="matrix(1.2866 2.8951e-6 -6.7737e-7 .48988 3206 -127.12)" gradientUnits="userSpaceOnUse" xlink:href="#j"/>
 </defs>
 <g transform="matrix(.11412 0 0 .11347 821.25 505.35)" clip-path="url(#bg)">
  <g transform="matrix(2.1129 0 0 2.2931 24224 -4726)">
   <path d="m-10460 515.35s18.386 127.56 25.281 191.73c3.168 29.474 7.527 79.613 7.384 88.709l122.09-123.6-59.928 155.4 174.98-58.692-187.01 178.43-78.241 3.2805-78.197-3.2805-196.41-153.82 184.38 34.086-52.409-124.08 113.44 91.658c-0.225-7.2932 0.133-50.907-3.361-75.898-8.757-62.643-43.795-183.24-43.795-183.24 23.57-17.299 37.699-24.246 71.793-20.669z" fill="url(#bd)"/>
   <g transform="matrix(.94594 0 0 1.0225 -565.44 -18.733)">
    <g transform="translate(-20.124)">
     <g transform="matrix(1.0842 0 0 1.023 2078.1 1642.1)" stroke-width="4.4334">
      <path transform="translate(0 -947.64)" d="m-11582 263.02-225.88-89.575-122.42 114.05 138 528.55 210.31-73.997z" fill="url(#i)" stroke="url(#d)"/>
      <path d="m-11582-684.61-148.68-89.575-104.63 114.05 114.89 528.55 138.43-73.997z" fill="url(#h)" stroke="url(#c)"/>
      <path d="m-11582-684.61-74.341-89.575-75.175 114.05 80.302 528.55 69.214-31.782z" fill="url(#g)" stroke="url(#b)"/>
     </g>
     <g transform="matrix(-1.0842 0 0 1.023 -22958 1642.1)" stroke-width="4.4334">
      <path transform="translate(0 -947.64)" d="m-11582 263.02-225.88-89.575-122.42 114.05 138 528.55 210.31-73.997z" fill="url(#s)" stroke="url(#d)"/>
      <path d="m-11582-684.61-148.68-89.575-104.63 114.05 114.89 528.55 138.43-73.997z" fill="url(#r)" stroke="url(#c)"/>
      <path d="m-11582-684.61-74.341-89.575-75.175 114.05 80.302 528.55 69.214-31.782z" fill="url(#q)" stroke="url(#b)"/>
     </g>
     <path d="m-10440 832.57-63.469 10.726-41.375 117.02 57.094 542.84c7.882 1.0984 34.576 21.64 47.75 21.775 13.174-0.1352 39.868-20.677 47.75-21.775l57.093-542.84-41.374-117.02z" fill="url(#p)" stroke="url(#bc)" stroke-width="3.3693"/>
    </g>
    <g transform="matrix(1.1522 0 0 1.0509 1592.6 -60.082)">
     <path d="m-10609 1180.4c-19.109-0.1066-36.787 11.874-42.861 30.764l-23.376 72.749c-7.476 23.249 5.545 47.89 29.204 55.236 0 0 120.81 57.667 185.74 57.667s185.74-57.667 185.74-57.667c23.659-7.3455 36.68-31.987 29.205-55.236l-23.378-72.749c-6.074-18.89-23.751-30.871-42.859-30.764-4.41 0.024-8.913 0.6869-13.35 2.0642 0 0-88.04 42.018-135.36 42.018s-135.36-42.018-135.36-42.018c-4.437-1.3773-8.939-2.0398-13.349-2.0642z" fill="#ff0" opacity=".6"/>
     <path d="m-10585 1207.6c-16.009-0.057-30.823 6.4804-35.911 16.79l-19.587 49.927c-6.264 12.688 4.648 26.136 24.47 30.145 0 0 101.94 36.291 155.62 36.291s155.62-36.291 155.62-36.291c19.823-4.0088 30.734-17.457 24.47-30.145l-19.588-49.927c-5.088-10.309-19.901-16.848-35.909-16.79-3.697 0.013-7.468 0.3749-11.187 1.1267 0 0-73.554 33.156-113.41 33.156s-113.41-33.156-113.41-33.156c-3.719-0.7518-7.49-1.1133-11.186-1.1267z" fill="url(#ac)"/>
     <path d="m-10601 1197.3c-18.032-0.083-34.68 9.3976-40.412 24.328l-22.07 57.498c-7.054 18.377 5.201 37.837 27.528 43.643 0 0 114.03 45.601 175.31 45.601s175.31-45.601 175.31-45.601c22.328-5.806 34.584-25.266 27.527-43.643l-22.069-57.498c-5.732-14.931-22.379-24.412-40.412-24.328-0.764 0-1.536 0.022-2.305 0.06-0.919-0.046-1.853-0.064-2.781-0.06-4.01 0.017-8.099 0.5189-12.136 1.5428 0 0-80.092 31.241-123.13 31.241s-123.13-31.241-123.13-31.241c-4.037-1.0239-8.126-1.5245-12.137-1.5428-0.928 0-1.861 0.013-2.78 0.06-0.769-0.038-1.541-0.056-2.305-0.06zm279.83 12.253c9.689 2.6489 17.582 7.8963 21.02 14.864l19.596 49.932c6.264 12.688-4.656 26.135-24.478 30.143 0 0-101.93 36.285-155.61 36.285s-155.61-36.285-155.61-36.285c-19.822-4.0087-30.741-17.455-24.477-30.143l19.595-49.932c3.435-6.958 11.316-12.182 20.986-14.834 0 0-20.608 38.012-11.527 54.798 9.981 18.449 61.262 29.592 61.262 29.592l24.545-63.681c22.206 7.6261 47.078 14.449 65.228 14.449s43.022-6.8226 65.228-14.449l24.545 63.681s51.284-11.142 61.261-29.592c9.083-16.799-11.561-54.828-11.561-54.828z" fill="#ac0600"/>
    </g>
    <g transform="matrix(1.1119 0 0 1 1170.8 0)">
     <path transform="matrix(.95856 .35143 -.31565 1.0672 228.83 2628.4)" d="m-10520 2027.5c0 41.065-48.702 74.355-108.78 74.355s-108.78-33.29-108.78-74.355 48.701-74.355 108.78-74.355 108.78 33.29 108.78 74.355z" fill="#ff0" opacity=".6"/>
     <path transform="matrix(.81014 .2865 -.26678 .87002 -1442.8 2347.8)" d="m-10520 2027.5c0 41.065-48.702 74.355-108.78 74.355s-108.78-33.29-108.78-74.355 48.701-74.355 108.78-74.355 108.78 33.29 108.78 74.355z" fill="#ac0600"/>
     <path transform="matrix(.65299 .23093 -.21503 .70126 -3212.2 2109.1)" d="m-10520 2027.5c0 41.065-48.702 74.355-108.78 74.355s-108.78-33.29-108.78-74.355 48.701-74.355 108.78-74.355 108.78 33.29 108.78 74.355z" fill="url(#o)"/>
     <path transform="matrix(.4584 .16938 -.15095 .51435 -5395.4 1837.5)" d="m-10520 2027.5c0 41.065-48.702 74.355-108.78 74.355s-108.78-33.29-108.78-74.355 48.701-74.355 108.78-74.355 108.78 33.29 108.78 74.355z" fill="#ff0" filter="url(#v)"/>
     <path transform="matrix(-.95856 .35143 .31565 1.0672 -21149 2628.4)" d="m-10520 2027.5c0 41.065-48.702 74.355-108.78 74.355s-108.78-33.29-108.78-74.355 48.701-74.355 108.78-74.355 108.78 33.29 108.78 74.355z" fill="#ff0" opacity=".6"/>
     <path transform="matrix(-.81014 .2865 .26678 .87002 -19477 2347.8)" d="m-10520 2027.5c0 41.065-48.702 74.355-108.78 74.355s-108.78-33.29-108.78-74.355 48.701-74.355 108.78-74.355 108.78 33.29 108.78 74.355z" fill="#ac0600"/>
     <path transform="matrix(-.65299 .23093 .21503 .70126 -17708 2109.1)" d="m-10520 2027.5c0 41.065-48.702 74.355-108.78 74.355s-108.78-33.29-108.78-74.355 48.701-74.355 108.78-74.355 108.78 33.29 108.78 74.355z" fill="url(#o)"/>
     <path transform="matrix(-.4584 .16938 .15095 .51435 -15525 1837.5)" d="m-10520 2027.5c0 41.065-48.702 74.355-108.78 74.355s-108.78-33.29-108.78-74.355 48.701-74.355 108.78-74.355 108.78 33.29 108.78 74.355z" fill="#ff0" filter="url(#v)"/>
    </g>
   </g>
  </g>
  <g transform="matrix(2.375 0 0 2.3861 19236 -5140.4)">
   <path d="m-9784.6 398.32s17.258 142.34 23.73 213.95c2.9737 32.889 7.0653 88.837 6.931 98.987l114.6-137.92-56.252 173.4 164.25-65.492-175.54 199.1-73.442 3.6605-73.401-3.6605-184.36-171.64 173.07 38.035-49.194-138.46 106.48 102.28c-0.2111-8.1381 0.1249-56.805-3.1548-84.691-8.2199-69.901-41.109-204.47-41.109-204.47 22.124-19.303 35.387-27.056 67.39-23.064z" fill="url(#bb)"/>
   <g transform="matrix(1.0278 0 0 .94963 284.54 38.946)">
    <g transform="translate(2.8403e-8 1.22e-5)">
     <g transform="matrix(-.93836 0 0 1.3475 -20628 1822.8)" stroke-width="3.822">
      <path transform="translate(0 -947.64)" d="m-11582 331.3-225.88-157.85-180.92 238.71 196.5 440.16 210.31-110.27z" fill="url(#ba)" stroke="url(#d)"/>
      <path d="m-11582-684.61-148.68-89.575-155.51 238.71 165.76 440.16 138.43-110.27z" fill="url(#az)" stroke="url(#c)"/>
      <path d="m-11582-720.89-74.341-53.303-133.66 238.71 138.79 440.16 69.214-39.859z" fill="url(#ay)" stroke="url(#b)"/>
     </g>
     <g transform="matrix(.93836 0 0 1.3475 1035.2 1822.8)" stroke-width="3.822">
      <path transform="translate(0 -947.64)" d="m-11582 331.3-225.88-157.85-180.92 238.71 196.5 440.16 210.31-110.27z" fill="url(#ax)" stroke="url(#d)"/>
      <path d="m-11582-684.61-148.68-89.575-155.51 238.71 165.76 440.16 138.43-110.27z" fill="url(#aw)" stroke="url(#c)"/>
      <path d="m-11582-720.89-74.341-53.303-133.66 238.71 138.79 440.16 69.214-39.859z" fill="url(#g)" stroke="url(#b)"/>
     </g>
     <path d="m-9796.4 773.26-51.338 11.132-57.783 322.2 70.978 576.57 38.142 17.507 38.17-17.507 70.978-576.57-57.783-322.2z" fill="url(#av)" stroke="url(#au)" stroke-width="1.4326"/>
    </g>
    <g transform="matrix(1.1823 0 0 .80616 1795 208.99)">
     <path d="m-9931.4 916.41c-60.185 0-108.64 50.608-108.64 113.47v187.28c34.216 11.013 70.725 16.964 108.64 16.964 37.916 0 74.425-5.9514 108.64-16.964v-187.28c0-62.862-48.455-113.47-108.64-113.47z" fill="#ff0" opacity=".6"/>
     <path d="m-9930.5 964.24c-51.871 0-93.633 40.796-93.633 91.469v150.97c29.489 8.8776 60.956 13.675 93.633 13.675s64.145-4.7974 93.634-13.675v-150.97c0-50.673-41.761-91.469-93.634-91.469z" fill="#ac0600"/>
     <path d="m-9919.5 983.52c-39.666 0-71.602 35.971-71.602 80.651v133.11c22.551 7.8275 46.613 12.057 71.602 12.057s49.052-4.23 71.602-12.057v-133.11c0-44.68-31.935-80.651-71.602-80.651z" fill="url(#n)"/>
     <path transform="matrix(1.1663 0 0 1.3614 1638.9 -1719.3)" d="m-9856.1 2085.4c0 30.418-19.111 55.078-42.685 55.078s-42.685-24.659-42.685-55.078 19.111-55.077 42.685-55.077 42.685 24.659 42.685 55.077z" fill="#ff0" filter="url(#t)" opacity=".8363"/>
    </g>
    <g transform="matrix(-1.1346 0 0 .80616 -20909 207.51)">
     <path d="m-9931.3 916.36c-60.185 0-108.64 50.608-108.64 113.47v187.28c34.215 11.013 70.725 16.964 108.64 16.964 37.916 0 74.425-5.9514 108.64-16.964v-187.28c0-62.862-48.455-113.47-108.64-113.47z" fill="#ff0" opacity=".6"/>
     <path d="m-9930.5 964.24c-51.871 0-93.633 40.796-93.633 91.469v150.97c29.489 8.8776 60.956 13.675 93.633 13.675s64.145-4.7974 93.634-13.675v-150.97c0-50.673-41.761-91.469-93.634-91.469z" fill="#ac0600"/>
     <path d="m-9919.5 983.52c-39.666 0-71.602 35.971-71.602 80.651v133.11c22.551 7.8275 46.613 12.057 71.602 12.057s49.052-4.23 71.602-12.057v-133.11c0-44.68-31.935-80.651-71.602-80.651z" fill="url(#n)"/>
     <path transform="matrix(1.1663 0 0 1.3614 1638.9 -1719.5)" d="m-9856.1 2085.4c0 30.418-19.111 55.078-42.685 55.078s-42.685-24.659-42.685-55.078 19.111-55.077 42.685-55.077 42.685 24.659 42.685 55.077z" fill="#ff0" filter="url(#t)" opacity=".8363"/>
    </g>
    <g transform="matrix(.93377 0 0 -.9065 -648.8 2657.9)">
     <path transform="matrix(1.1863 0 0 1.2032 1817.6 -1500.8)" d="m-9591.7 2404.8c0 66.921-88.772 121.17-198.28 121.17s-198.28-54.25-198.28-121.17 88.772-121.17 198.28-121.17 198.28 54.25 198.28 121.17z" fill="#ff0" opacity=".6875"/>
     <path transform="matrix(.875 0 0 .81176 -1230.1 -562.2)" d="m-9591.7 2404.8c0 66.921-88.772 121.17-198.28 121.17s-198.28-54.25-198.28-121.17 88.772-121.17 198.28-121.17 198.28 54.25 198.28 121.17z" fill="url(#ab)"/>
     <path d="m-9796.4 1280.9c-121.67 0-220.31 53.572-220.31 119.64s98.639 119.61 220.31 119.61 220.31-53.542 220.31-119.61-98.639-119.64-220.31-119.64zm0 10.649c95.818 0 173.47 44.02 173.47 98.343 0 25.166-16.677 48.123-44.094 65.522-6.585-45.017-31.751-87.947-72.313-121.57 13.653 45.579 11.71 97.858-7.4374 150.32-15.722 2.657-32.379 4.1026-49.625 4.1026-17.235 0-33.879-1.4488-49.594-4.1026-19.149-52.462-21.122-104.74-7.4688-150.32-40.571 33.632-65.734 76.574-72.312 121.6-27.441-17.401-44.125-40.377-44.125-65.552 0-54.323 77.682-98.343 173.5-98.343z" fill="#ad0800"/>
    </g>
   </g>
  </g>
  <g transform="matrix(2.2338 0 0 2.2752 25351 -1359.6)">
   <path d="m-11251-1158.2s-33.099 146.62-43.523 221.38c-4.222 30.277-7.798 82.224-7.65 91.618l-59.259-145.03-5.144 177.86-160.68-49.299 173.14 172.96 81.062 3.3881 81.019-3.3881 184.16-185.89-171.7 62.229 49.933-159.24-113.16 125.75c0.233-7.5323-1.524-52.905 3.482-78.387 14.274-72.659 74.388-205.68 74.388-205.68-24.42-17.866-50.742-31.972-86.066-28.277z" fill="url(#at)"/>
   <g transform="matrix(.97725 0 0 1.0411 -282.63 33.256)">
    <g transform="matrix(-1.1279 0 0 1.2171 -24252 148.89)" stroke-width="3.7937">
     <path transform="translate(0 -947.64)" d="m-11582 263.02-225.88-89.575-102.07 154.63 117.64 524.24 210.31-110.27z" fill="url(#as)" stroke="url(#d)"/>
     <path d="m-11582-684.61-148.68-89.575-76.65 154.63 86.904 524.24 138.43-110.27z" fill="url(#ar)" stroke="url(#c)"/>
     <path d="m-11582-684.61-74.341-89.575-54.803 154.63 59.93 524.24 69.214-39.859z" fill="url(#aq)" stroke="url(#b)"/>
    </g>
    <g transform="matrix(1.1279 0 0 1.2171 1770.7 148.89)" stroke-width="3.7937">
     <path transform="translate(0 -947.64)" d="m-11582 263.02-225.88-89.575-102.07 154.63 117.64 524.24 210.31-110.27z" fill="url(#i)" stroke="url(#d)"/>
     <path d="m-11582-684.61-148.68-89.575-76.65 154.63 86.904 524.24 138.43-110.27z" fill="url(#h)" stroke="url(#c)"/>
     <path d="m-11582-684.61-74.341-89.575-54.803 154.63 59.93 524.24 69.214-39.859z" fill="url(#g)" stroke="url(#b)"/>
    </g>
    <path d="m-11241-808.84-75.088 25.37-21.957 181.38 39.802 618.51 57.243 21.13 57.261-21.13 39.802-618.51-21.994-181.38z" fill="url(#ap)" stroke="url(#ao)" stroke-width="4.445"/>
   </g>
   <g transform="matrix(.92876 .18862 -.17838 .98205 -906.4 2149.4)">
    <path d="m-11601-602.93c47.85-76.213 228.49 10.647 273.88 34.688s67.054 97.397 40.983 138.78-106.2 60.823-151.59 36.783-211.05-134.13-163.27-210.25z" fill="#ff0" opacity=".6"/>
    <path d="m-11565-577.82c41.432-63.04 196.55-0.79414 237 20.054s59.625 84.702 36.279 120.8-94.88 53.196-135.33 32.348-179.64-109.76-137.95-173.2z" fill="#a00"/>
    <path d="m-11531-559.66c31.198-50.487 148.73 1.3509 179.57 19.404 30.835 18.053 46.037 72.27 28.758 102.57s-71.23 44.027-102.06 25.973c-30.836-18.053-138.46-95.844-106.26-147.94z" fill="url(#m)"/>
    <path transform="matrix(1.0507 .02532 .02728 1.2688 581.19 426.94)" d="m-11479-536.49s94.867-0.41451 114.39 10.106 28.773 42.749 17.502 60.971-45.799 26.857-65.321 16.337-66.57-87.413-66.57-87.413z" fill="#ff0" filter="url(#w)" opacity=".8894"/>
   </g>
   <g transform="matrix(-.92876 .18862 .17838 .98205 -21629 2149.4)">
    <path d="m-11601-602.93c47.85-76.213 228.49 10.647 273.88 34.688s67.054 97.397 40.983 138.78-106.2 60.823-151.59 36.783-211.05-134.13-163.27-210.25z" fill="#ff0" opacity=".6"/>
    <path d="m-11565-577.82c41.432-63.04 196.55-0.79414 237 20.054s59.625 84.702 36.279 120.8-94.88 53.196-135.33 32.348-179.64-109.76-137.95-173.2z" fill="#a00"/>
    <path d="m-11531-559.66c31.198-50.487 148.73 1.3509 179.57 19.404 30.835 18.053 46.037 72.27 28.758 102.57s-71.23 44.027-102.06 25.973c-30.836-18.053-138.46-95.844-106.26-147.94z" fill="url(#m)"/>
    <path transform="matrix(1.0507 .02532 .02728 1.2688 581.19 426.94)" d="m-11479-536.49s94.867-0.41451 114.39 10.106 28.773 42.749 17.502 60.971-45.799 26.857-65.321 16.337-66.57-87.413-66.57-87.413z" fill="#ff0" filter="url(#w)" opacity=".8894"/>
   </g>
   <path d="m-11350-335.58c-67.846 0-122.84 53.465-122.84 119.46s54.999 119.5 122.84 119.5c31.668 0 54.111-30.825 82.318-30.825s50.64 30.825 82.318 30.825c67.845 0 122.84-53.51 122.84-119.5s-55-119.46-122.84-119.46c-31.678 0-54.111 30.825-82.318 30.825s-50.65-30.825-82.318-30.825z" fill="#ff0" opacity=".6"/>
   <path d="m-11339-313.34c-59.051 0-106.92 32.843-106.92 73.38s47.87 73.408 106.92 73.408c27.562 0 47.096-18.935 71.647-18.935s44.076 18.935 71.647 18.935c59.051 0 106.92-32.87 106.92-73.408s-47.87-73.38-106.92-73.38c-27.571 0-47.096 18.935-71.647 18.935s-44.085-18.935-71.647-18.935z" fill="url(#aa)"/>
   <path d="m-11343-325.2c-62.4 0-112.99 43.449-112.99 97.092v2.0866c0 47.564 41.535 86.987 95.77 93.962 5.61 0.73743 11.366 1.1106 17.216 1.1106 2.731 0 5.398-0.20638 7.99-0.60578 25.064-3.7776 43.561-30.217 67.717-30.219s42.673 26.442 67.745 30.219c2.595 0.39079 5.26 0.60578 7.991 0.60578 5.85 0 11.607-0.37316 17.217-1.1106 54.234-6.9746 95.769-46.398 95.769-93.962v-2.0866c0-53.642-50.585-97.092-112.99-97.092-29.135 0-49.792 25.039-75.736 25.039s-46.58-25.039-75.707-25.039zm30.093 20.865c15.504 5.4896 29.474 13.462 45.614 13.462 16.132 0 30.113-7.9722 45.614-13.462 0 0-27.544 52.75-14.706 74.791 10.849 18.626 42.42 31.482 61.787 21.539 29.335-15.062 26.097-94.075 26.097-94.075 35.007 11.568 59.204 35.619 59.755 63.505-1.078 39.897-48.517 72.02-106.89 72.02-27.569 0-47.17-18.915-71.654-18.914s-44.063 18.914-71.626 18.914c-58.375 0-105.81-32.122-106.89-72.02 0.551-27.886 24.75-51.937 59.755-63.505 0 0-3.237 79.013 26.098 94.075 19.367 9.9436 50.941-2.9101 61.787-21.539 12.835-22.045-14.736-74.791-14.736-74.791z" fill="#ac0600"/>
  </g>
  <g transform="matrix(2.2338 0 0 2.2338 22367 -4771.6)">
   <path d="m-12693 494.49s-33.099 149.35-43.523 225.49c-4.222 30.84-7.798 83.751-7.65 93.32l-59.259-147.72-5.144 181.16-160.68-50.215 173.14 176.17 81.062 3.451 81.019-3.451 184.16-189.34-171.7 63.385 49.933-162.19-113.16 128.09c0.233-7.6722-1.524-53.887 3.482-79.843 14.274-74.008 74.388-209.5 74.388-209.5-24.42-18.198-50.742-32.566-86.066-28.803z" fill="url(#an)"/>
   <g transform="matrix(1.0497 0 0 1.097 -2369.1 -185.6)">
    <g transform="matrix(.83073 0 0 .98404 -1177.8 128.8)">
     <g transform="matrix(1.0842 0 0 1.023 2078.1 1642.1)" stroke-width="4.4284">
      <path transform="translate(0 -947.64)" d="m-11582 325.27-225.88-151.82-122.42 290.31 138 352.3 210.31-73.997z" fill="url(#i)" stroke="url(#d)"/>
      <path d="m-11582-622.37-148.68-151.82-104.63 290.31 114.89 352.3 138.43-73.997z" fill="url(#h)" stroke="url(#c)"/>
      <path d="m-11582-682.55-74.341-91.639-75.175 290.31 80.302 352.3 69.214-26.634z" fill="url(#g)" stroke="url(#b)"/>
     </g>
     <g transform="matrix(-1.0842 0 0 1.023 -22958 1642.1)" stroke-width="4.4284">
      <path transform="translate(0 -947.64)" d="m-11582 325.27-225.88-151.82-122.42 290.31 138 352.3 210.31-73.997z" fill="url(#s)" stroke="url(#d)"/>
      <path d="m-11582-622.37-148.68-151.82-104.63 290.31 114.89 352.3 138.43-73.997z" fill="url(#r)" stroke="url(#c)"/>
      <path d="m-11582-682.55-74.341-91.639-75.175 290.31 80.302 352.3 69.214-26.634z" fill="url(#q)" stroke="url(#b)"/>
     </g>
     <path d="m-10440 832.57-63.469 10.726-41.375 303.75 57.094 356.12c7.882 1.0984 34.576 21.64 47.75 21.775 13.174-0.1352 39.868-20.677 47.75-21.775l57.093-356.12-41.374-303.75z" fill="url(#p)"/>
    </g>
    <g transform="matrix(.91488 .3492 -.28569 1.0029 -481.1 3463.7)">
     <path d="m-10127 1124.5 171.44 15.578c34.656 3.1491 62.802 33.074 62.802 74.17s-35.448 60.804-62.802 74.188c-34.584 16.921-81.668 21.515-112.3 0-47.539-33.388-59.138-163.94-59.138-163.94z" fill="#ff0" opacity=".6"/>
     <path d="m-10096 1163.4h140.18c29.458 0 53.165 26.286 53.165 58.948s-30.008 48.326-53.165 58.964c-29.277 13.448-68.645 19.396-95.068 0-32.109-23.568-45.117-117.91-45.117-117.91z" fill="#ac0600"/>
     <path d="m-10066 1179.1h110.24c23.165 0 41.806 21.625 41.806 48.495s-23.597 39.756-41.806 48.507c-23.022 11.064-53.98 15.956-74.757 0-25.25-19.389-35.479-97.002-35.479-97.002z" fill="url(#l)"/>
     <path transform="matrix(1.2914 -.03534 -.03427 1.2986 2930.2 -718.93)" d="m-10002 1205.1h53.332c11.207 0 20.226 10.949 20.226 24.554s-11.416 20.13-20.226 24.561c-11.138 5.6017-26.115 8.0791-36.167 0-12.216-9.8172-17.165-49.115-17.165-49.115z" fill="#ff0" filter="url(#u)"/>
    </g>
    <g transform="matrix(-.91488 .3492 .28569 1.0029 -19220 3463.7)">
     <path d="m-10127 1124.5 171.44 15.578c34.656 3.1491 62.802 33.074 62.802 74.17s-35.448 60.804-62.802 74.188c-34.584 16.921-81.668 21.515-112.3 0-47.539-33.388-59.138-163.94-59.138-163.94z" fill="#ff0" opacity=".6"/>
     <path d="m-10096 1163.4h140.18c29.458 0 53.165 26.286 53.165 58.948s-30.008 48.326-53.165 58.964c-29.277 13.448-68.645 19.396-95.068 0-32.109-23.568-45.117-117.91-45.117-117.91z" fill="#ac0600"/>
     <path d="m-10066 1179.1h110.24c23.165 0 41.806 21.625 41.806 48.495s-23.597 39.756-41.806 48.507c-23.022 11.064-53.98 15.956-74.757 0-25.25-19.389-35.479-97.002-35.479-97.002z" fill="url(#l)"/>
     <path transform="matrix(1.2914 -.03534 -.03427 1.2986 2930.2 -718.93)" d="m-10002 1205.1h53.332c11.207 0 20.226 10.949 20.226 24.554s-11.416 20.13-20.226 24.561c-11.138 5.6017-26.115 8.0791-36.167 0-12.216-9.8172-17.165-49.115-17.165-49.115z" fill="#ff0" filter="url(#u)"/>
    </g>
    <g transform="matrix(1.0611 0 0 1.0122 601.58 -18.624)">
     <path d="m-9850.6 1304.4c-99.374 0-179.96 101.25-180.36 226.34 48.351-31.515 111.39-50.585 180.36-50.585s132.04 19.069 180.39 50.585c-0.397-125.1-81.013-226.34-180.39-226.34z" fill="#ff0" opacity=".6"/>
     <path d="m-9850.6 1326.5c-68.142 0-123.4 56.019-123.67 125.23 33.154-17.437 76.377-27.988 123.67-27.988s90.538 10.551 123.69 27.988c-0.2723-69.216-55.551-125.23-123.69-125.23z" fill="url(#z)"/>
     <path transform="translate(0 -947.64)" d="m-9850.6 2261.5c-84.468 0-152.94 79.466-153.28 177.66 41.098-24.737 94.654-39.719 153.28-39.719s112.25 14.982 153.34 39.719c-0.3375-98.191-68.876-177.66-153.34-177.66zm0.031 12.656c68.142 0 123.42 56.034 123.69 125.25-7.8172-4.1114-16.203-7.8272-25.063-11.125-1.4838-35.638-11.76-53.501-49.437-82.351 2.2211 42.371 2.4073 41.206 1.1874 69.632-16.037-2.6866-32.932-4.1562-50.375-4.1562-17.454 0-34.36 1.4664-50.406 4.1562-1.2197-28.426-1.0023-27.261 1.2188-69.632-37.677 28.85-47.954 46.712-49.438 82.351-8.864 3.2989-17.242 7.0117-25.062 11.125 0.2723-69.216 55.546-125.25 123.69-125.25z" fill="#ac0600"/>
    </g>
   </g>
  </g>
  <g transform="matrix(2.7975 0 0 2.9298 31817 -5788.7)">
   <path d="m-12036 744.97s-16.673 77.129-22.347 116.14c-3.431 23.593-7.187 63.876-7.051 71.174l-112.99-52.508 53.636 78.017-145.56-27.348 157.04 123.41 74.712 2.632 74.673-2.632 157.04-123.41-145.56 27.348 53.636-78.017-111.91 52.003c0.215-5.8515-1.891-41.219 3.209-60.895 9.675-37.332 50.794-103.95 50.794-103.95-22.507-13.88-46.767-24.838-79.324-21.968z" fill="url(#am)"/>
   <g transform="matrix(.9993 0 0 .92167 -491.38 1685.6)" stroke-width="3.6789">
    <path transform="translate(0 -947.64)" d="m-11582 263.02-225.88-89.575-81.786 190.83 97.364 451.77 210.31-73.997z" fill="url(#i)" stroke="url(#d)"/>
    <path d="m-11582-684.61-148.68-89.575-53.834 190.83 64.088 451.77 138.43-73.997z" fill="url(#h)" stroke="url(#c)"/>
    <path d="m-11582-684.61-74.341-89.575-26.917 190.83 32.044 451.77 69.214-33.614z" fill="url(#g)" stroke="url(#b)"/>
    <g transform="translate(28.916)">
     <path d="m-11556-684.61 225.88-89.575 81.786 190.83-97.364 451.77-210.31-73.997z" fill="url(#al)" stroke="url(#ak)"/>
     <path d="m-11556-684.61 148.68-89.575 53.834 190.83-64.088 451.77-138.43-73.997z" fill="url(#aj)" stroke="url(#ai)"/>
     <path d="m-11556-684.61 74.341-89.575 26.917 190.83-32.044 451.77-69.214-33.614z" fill="url(#ah)" stroke="url(#ag)"/>
    </g>
   </g>
   <path d="m-12038 960.05-44.42 26.028-19.529 172.61 35.399 407.54c9.028 1.1228 18.603 1.7068 28.55 1.7068s19.553-0.5839 28.582-1.7068l35.399-407.54-19.56-172.61-44.421-26.028z" fill="url(#af)" stroke="url(#ae)" stroke-width="3.5306"/>
   <path d="m-12143 1077.5c-46.971 0-85.034 34.44-85.034 76.921s38.063 76.921 85.034 76.921 85.072-34.44 85.072-76.921-38.101-76.921-85.072-76.921zm209.47 0c-46.971 0-85.068 34.44-85.068 76.921s38.099 76.921 85.068 76.921c46.976 0 85.039-34.44 85.039-76.921s-38.063-76.921-85.039-76.921zm-303.83 198.96c9.178 107.09 94.841 191.01 199.11 191.01s189.9-83.925 199.08-191.01h-398.19zm17.802 15.599h103.35v66.975c17.69 7.3203 39.945 12.205 64.502 13.524v-80.499h26.87v80.499c24.552-1.3115 46.821-6.1383 64.503-13.452v-67.046h103.35c-1.52 12.123-4.327 23.854-8.221 35.097 0 0.056-0.02 0.1231-0.03 0.179-24.753 58.785-92.876 101.03-173.02 101.03-80.489 0-148.83-42.641-173.31-101.82 0-0.029-0.02-0.043-0.03-0.072-3.772-11.036-6.478-22.54-7.962-34.418z" fill="#ff0" opacity=".6058"/>
   <path transform="matrix(1.4499 0 0 1.2609 2793.2 2046.5)" d="m-10243-694.66c0 31.939-25.892 57.831-57.831 57.831s-57.832-25.892-57.832-57.831 25.892-57.831 57.832-57.831 57.831 25.892 57.831 57.831z" fill="#a00" stroke="url(#k)" stroke-width="1.7408"/>
   <path transform="matrix(-1.4499 0 0 1.2609 -26870 2046.5)" d="m-10243-694.66c0 31.939-25.892 57.831-57.831 57.831s-57.832-25.892-57.832-57.831 25.892-57.831 57.832-57.831 57.831 25.892 57.831 57.831z" fill="#a00" stroke="url(#k)" stroke-width="1.7408"/>
   <path d="m-12142 1133.9c-35.461 0-64.216 23.333-64.216 52.135s28.755 52.134 64.216 52.134 64.178-23.333 64.178-52.134-28.72-52.135-64.178-52.135zm206.46 0c-35.459 0-64.178 23.333-64.178 52.135s28.719 52.134 64.178 52.134 64.216-23.333 64.216-52.134-28.756-52.135-64.216-52.135zm-291.01 155.72c8.658 81.461 89.462 145.31 187.82 145.31s179.09-63.845 187.74-145.31h-375.56z" fill="url(#y)"/>
   <path transform="matrix(1.2074 0 0 1.1163 1942.8 1754.7)" d="m-11699-407.2c18.395 56.745 64.687 97.031 118.91 97.031s100.49-40.287 118.88-97.031h-237.78z" fill="url(#x)" filter="url(#be)"/>
   <path d="m-12235 1281.3c9.051 93.654 93.503 167.05 196.3 167.05 102.79 0 187.21-73.392 196.25-167.05h-392.55zm17.56 13.619h101.87v58.58c17.439 6.4021 39.382 10.675 63.593 11.828v-70.408h26.502v70.408c24.206-1.147 46.156-5.357 63.588-11.753v-58.655h101.88c-1.496 10.602-4.243 20.875-8.081 30.708 0 0.049-0.03 0.101-0.06 0.1492-24.403 51.41-91.557 88.355-170.56 88.355-79.349 0-146.72-37.27-170.85-89.027 0-0.025-0.03-0.049-0.06-0.075-3.718-9.651-6.374-19.723-7.838-30.111z" fill="#a00" stroke="url(#ad)" stroke-width="3.5306"/>
   <path transform="matrix(1.2074 0 0 1.2101 1942.8 1799.5)" d="m-11665-547.64c-19.012 0-34.438 15.426-34.438 34.438s15.426 34.406 34.438 34.406 34.437-15.395 34.437-34.406-15.426-34.438-34.437-34.438zm169.38 0c-19.012 0-34.438 15.426-34.438 34.438s15.426 34.406 34.438 34.406 34.406-15.395 34.406-34.406-15.395-34.438-34.406-34.438z" fill="#ff0" filter="url(#bf)" opacity=".9381"/>
  </g>
 </g>
</svg>
